<?xml version="1.0" standalone="no"?>
<!DOCTYPE svg PUBLIC "-//W3C//DTD SVG 20010904//EN"
 "http://www.w3.org/TR/2001/REC-SVG-20010904/DTD/svg10.dtd">
<svg version="1.0" xmlns="http://www.w3.org/2000/svg"
 width="716.000000pt" height="716.000000pt" viewBox="0 0 716.000000 716.000000"
 preserveAspectRatio="xMidYMid meet">
<metadata>
Created by potrace 1.11, written by Peter Selinger 2001-2013
</metadata>
<g transform="translate(0.000000,716.000000) scale(0.100000,-0.100000)"
fill="#000000" stroke="none">
<path d="M1530 4611 l0 -851 165 0 165 0 0 354 0 354 218 5 c160 4 233 9 277
22 228 64 365 242 365 475 0 222 -126 391 -349 468 -38 13 -114 16 -443 19
l-398 4 0 -850z m687 574 c104 -31 154 -91 161 -195 8 -109 -34 -186 -126
-231 -42 -21 -64 -24 -219 -27 l-173 -4 0 236 0 236 153 0 c107 0 169 -5 204
-15z"/>
<path d="M3343 5423 c-11 -27 -587 -1426 -680 -1650 -4 -10 33 -13 168 -13
l174 0 80 205 80 205 380 0 381 0 85 -202 86 -203 175 -3 176 -2 -244 552
c-135 304 -304 687 -376 851 l-131 297 -169 0 -169 0 -16 -37z m331 -667 c75
-175 136 -322 136 -327 0 -5 -121 -9 -271 -9 -254 0 -271 1 -265 18 88 237
253 649 258 644 3 -4 67 -150 142 -326z"/>
<path d="M4300 5456 c0 -2 144 -194 320 -427 l320 -423 0 -423 0 -423 165 0
165 0 0 422 0 421 297 396 c163 218 307 411 321 429 l24 32 -195 0 -196 0
-201 -275 c-111 -151 -205 -277 -210 -280 -5 -3 -100 121 -212 275 l-203 280
-197 0 c-109 0 -198 -2 -198 -4z"/>
<path d="M5490 3895 l0 -155 160 0 160 0 0 155 0 155 -160 0 -160 0 0 -155z"/>
<path d="M0 3515 l0 -25 3580 0 3580 0 0 25 0 25 -3580 0 -3580 0 0 -25z"/>
<path d="M3439 3186 c-175 -37 -262 -228 -168 -369 31 -47 99 -89 224 -137
115 -45 166 -89 185 -160 32 -120 -62 -230 -199 -230 -52 0 -73 6 -148 45 -48
25 -88 45 -90 45 -2 0 -3 -18 -3 -39 0 -40 0 -40 77 -78 72 -36 83 -38 167
-38 75 0 99 4 132 22 96 51 146 134 146 238 -1 136 -50 186 -272 276 -102 41
-165 95 -175 152 -12 62 2 107 49 153 73 74 171 82 293 24 36 -16 67 -30 69
-30 2 0 4 17 4 39 0 37 -2 40 -48 59 -39 17 -161 44 -182 41 -3 0 -30 -6 -61
-13z"/>
<path d="M2677 3183 c-6 -10 -391 -850 -418 -910 l-18 -43 38 0 38 0 74 165
74 165 235 0 235 0 74 -165 74 -165 38 0 c38 0 38 0 26 28 -6 15 -105 230
-218 477 -167 365 -210 451 -226 453 -12 2 -23 0 -26 -5z m126 -336 c53 -118
97 -217 97 -220 0 -4 -90 -7 -200 -7 -110 0 -200 3 -200 8 0 13 193 432 199
432 4 0 50 -96 104 -213z"/>
<path d="M1250 2705 l0 -475 35 0 35 0 2 422 3 421 174 -214 c96 -118 177
-217 181 -221 3 -4 87 92 185 213 l180 221 3 -421 2 -421 35 0 35 0 0 475 0
475 -37 0 c-37 0 -42 -5 -218 -221 -139 -170 -182 -217 -190 -206 -5 7 -86
107 -180 220 -166 203 -170 207 -207 207 l-38 0 0 -475z"/>
<path d="M3830 3150 l0 -30 180 0 180 0 0 -445 0 -445 35 0 35 0 0 445 0 445
180 0 180 0 0 30 0 30 -395 0 -395 0 0 -30z"/>
<path d="M4740 2705 l0 -475 265 0 265 0 0 30 0 30 -230 0 -230 0 0 195 0 195
220 0 220 0 0 30 0 30 -220 0 -220 0 0 190 0 190 225 0 225 0 0 30 0 30 -260
0 -260 0 0 -475z"/>
<path d="M5420 2706 l0 -476 40 0 40 0 0 230 0 230 81 0 c173 0 193 -15 364
-281 l112 -174 42 -3 c22 -2 41 -1 41 2 0 14 -256 393 -291 431 l-41 45 23 9
c50 19 107 70 129 115 18 38 21 60 18 119 -4 96 -38 149 -122 192 -59 30 -61
30 -248 33 l-188 4 0 -476z m345 403 c95 -26 139 -88 133 -185 -5 -78 -26
-110 -94 -144 -43 -22 -64 -25 -176 -29 l-128 -3 0 186 0 186 113 0 c61 0 130
-5 152 -11z"/>
</g>
</svg>
